<?xml version="1.0" encoding="UTF-8"?>
<svg width="14px" height="14px" viewBox="0 0 14 14" version="1.1" xmlns="http://www.w3.org/2000/svg" xmlns:xlink="http://www.w3.org/1999/xlink">
    <title>温馨提示</title>
    <g id="6.0" stroke="none" stroke-width="1" fill="none" fill-rule="evenodd">
        <g id="OCR_1备份" transform="translate(-560.000000, -785.000000)" fill="#6D7C88">
            <path d="M567,785 C570.865993,785 574,788.134007 574,792 C574,795.865993 570.865993,799 567,799 C563.134007,799 560,795.865993 560,792 C560,788.134007 563.134007,785 567,785 Z M567,791 C566.447715,791 566,791.447715 566,792 L566,792 L566,795 C566,795.552285 566.447715,796 567,796 C567.552285,796 568,795.552285 568,795 L568,795 L568,792 C568,791.447715 567.552285,791 567,791 Z M567,788 C566.447715,788 566,788.447715 566,789 C566,789.552285 566.447715,790 567,790 C567.552285,790 568,789.552285 568,789 C568,788.447715 567.552285,788 567,788 Z" id="温馨提示"></path>
        </g>
    </g>
</svg>