<?xml version="1.0" encoding="UTF-8"?>
<svg width="14px" height="14px" viewBox="0 0 14 14" version="1.1" xmlns="http://www.w3.org/2000/svg" xmlns:xlink="http://www.w3.org/1999/xlink">
    <title>温馨提示</title>
    <g id="6.0" stroke="none" stroke-width="1" fill="none" fill-rule="evenodd">
        <g id="OCR_1" transform="translate(-560.000000, -784.000000)" fill="#8AA1B4">
            <path d="M567,784 C570.865993,784 574,787.134007 574,791 C574,794.865993 570.865993,798 567,798 C563.134007,798 560,794.865993 560,791 C560,787.134007 563.134007,784 567,784 Z M567,790 C566.447715,790 566,790.447715 566,791 L566,791 L566,794 C566,794.552285 566.447715,795 567,795 C567.552285,795 568,794.552285 568,794 L568,794 L568,791 C568,790.447715 567.552285,790 567,790 Z M567,787 C566.447715,787 566,787.447715 566,788 C566,788.552285 566.447715,789 567,789 C567.552285,789 568,788.552285 568,788 C568,787.447715 567.552285,787 567,787 Z" id="温馨提示"></path>
        </g>
    </g>
</svg>